<svg width="79" height="30" viewBox="0 0 79 30" fill="none" xmlns="http://www.w3.org/2000/svg">
<g clip-path="url(#clip0_749_2379)">
<path d="M20.0773 29.3672C19.0222 29.3672 18.1667 28.5292 18.1667 27.4957V12.051H17.9305L13.6421 26.5754C13.5319 27.0073 13.1329 27.3106 12.6763 27.3106H11.5373C11.0806 27.3106 10.6817 27.0073 10.5715 26.5754L6.25685 12.051H6.02065V27.5009C6.02065 28.5343 5.16508 29.3723 4.11004 29.3723H2.3569C1.30186 29.3723 0.446289 28.5343 0.446289 27.5009V2.36463C0.451538 1.33121 1.30711 0.493164 2.36215 0.493164H7.55334C8.45615 0.493164 9.233 1.11013 9.42196 1.97388L11.826 13.0433H12.0989L14.7864 1.93275C14.9911 1.08957 15.7574 0.493164 16.6445 0.493164H21.8357C22.8907 0.493164 23.741 1.32607 23.7463 2.35949L23.7778 27.4957C23.7778 28.5292 22.9222 29.3672 21.8672 29.3672H20.0773Z" fill="#FF7676"/>
<path d="M37.5769 0.493164H40.2696C41.204 0.493164 41.9598 1.23352 41.9598 2.14869V20.4829C41.8443 25.249 41.3772 26.4726 40.5583 27.7682C39.5453 29.3723 37.7921 29.8659 34.0549 29.8659C30.3177 29.8659 28.5278 29.3723 27.5147 27.7682C26.6592 26.4726 26.0713 25.249 26.0713 20.4829V2.15383C26.0713 1.23867 26.8271 0.498305 27.7614 0.498305H30.6484C31.5827 0.498305 32.3385 1.23867 32.3385 2.15383V20.4829C32.3385 23.1924 32.6115 23.4186 34.1284 23.4186C35.6453 23.4186 35.8815 23.1873 35.8815 20.4829V2.15383C35.8815 1.23867 36.6374 0.498305 37.5717 0.498305L37.5769 0.493164Z" fill="#FF7676"/>
<path d="M57.7172 18.3085C58.7459 18.3085 59.5963 19.1105 59.6278 20.1183C59.633 20.3856 59.6383 20.6478 59.6383 20.9049C59.6383 27.0437 58.6252 29.8663 52.0431 29.8663C48.1484 29.8663 46.3165 29.2545 45.3087 27.5013C44.2956 25.8252 43.8652 23.6093 43.8652 14.6838C43.8652 5.75835 44.2956 4.04113 45.3087 2.28792C46.3217 0.570694 48.1536 0 51.8489 0C58.4678 0 59.5595 2.36504 59.5595 8.50386C59.5595 8.73008 59.5595 8.97686 59.549 9.22879C59.5228 10.2416 58.6777 11.0591 57.6384 11.0591H55.6438C54.6098 11.0591 53.7595 10.2468 53.7385 9.23393C53.7017 7.62468 53.602 7.0437 53.4865 6.63239C53.371 6.13882 52.8619 5.90745 51.8489 5.90745C50.8358 5.90745 50.4841 6.13882 50.3319 6.63239C50.059 7.39332 49.9435 8.34961 49.9435 14.6015C49.9435 20.8535 50.059 21.8869 50.3319 22.7249C50.4894 23.2185 50.8778 23.4139 52.0431 23.4139C52.8619 23.4139 53.2871 23.2236 53.4445 22.7661C53.7175 22.0206 53.8172 21.2956 53.8539 20.1234C53.8854 19.1105 54.7253 18.3033 55.7593 18.3033H57.7119L57.7172 18.3085Z" fill="#FF7676"/>
<path d="M71.9472 27.5009V19.3775C71.9472 18.3441 71.0916 17.506 70.0366 17.506C68.9816 17.506 68.126 18.3441 68.126 19.3775V27.5009C68.126 28.5343 67.2704 29.3723 66.2154 29.3723H63.7641C62.7091 29.3723 61.8535 28.5343 61.8535 27.5009V2.36463C61.8535 1.33121 62.7091 0.493164 63.7641 0.493164H66.2154C67.2704 0.493164 68.126 1.33121 68.126 2.36463V9.80422C68.126 10.8376 68.9816 11.6757 70.0366 11.6757C71.0916 11.6757 71.9472 10.8376 71.9472 9.80422V2.36463C71.9472 1.33121 72.8028 0.493164 73.8578 0.493164H76.3091C77.3641 0.493164 78.2197 1.33121 78.2197 2.36463V27.5009C78.2197 28.5343 77.3641 29.3723 76.3091 29.3723H73.8578C72.8028 29.3723 71.9472 28.5343 71.9472 27.5009Z" fill="#FF7676"/>
<path d="M75.0545 8.27272C76.7968 8.27272 78.2091 6.88929 78.2091 5.18275C78.2091 3.4762 76.7968 2.09277 75.0545 2.09277C73.3123 2.09277 71.8999 3.4762 71.8999 5.18275C71.8999 6.88929 73.3123 8.27272 75.0545 8.27272Z" fill="#F91E1E"/>
<path d="M56.5522 12.4623C58.2567 12.4623 59.6386 11.1088 59.6386 9.43915C59.6386 7.76952 58.2567 6.41602 56.5522 6.41602C54.8476 6.41602 53.4658 7.76952 53.4658 9.43915C53.4658 11.1088 54.8476 12.4623 56.5522 12.4623Z" fill="#F91E1E"/>
<path d="M38.8735 16.6791C40.578 16.6791 41.9599 15.3256 41.9599 13.6559C41.9599 11.9863 40.578 10.6328 38.8735 10.6328C37.1689 10.6328 35.7871 11.9863 35.7871 13.6559C35.7871 15.3256 37.1689 16.6791 38.8735 16.6791Z" fill="#F91E1E"/>
<path d="M3.08637 29.9945C4.79093 29.9945 6.17274 28.641 6.17274 26.9714C6.17274 25.3017 4.79093 23.9482 3.08637 23.9482C1.38181 23.9482 0 25.3017 0 26.9714C0 28.641 1.38181 29.9945 3.08637 29.9945Z" fill="#F91E1E"/>
</g>
<defs>
<clipPath id="clip0_749_2379">
<rect width="78.2143" height="30" fill="white"/>
</clipPath>
</defs>
</svg>
